<?xml version="1.0" standalone="no"?>
<!DOCTYPE svg PUBLIC "-//W3C//DTD SVG 20010904//EN"
 "http://www.w3.org/TR/2001/REC-SVG-20010904/DTD/svg10.dtd">
<svg version="1.0" xmlns="http://www.w3.org/2000/svg"
 width="16.000000pt" height="16.000000pt" viewBox="0 0 16.000000 16.000000"
 preserveAspectRatio="xMidYMid meet">
<metadata>
Created by potrace 1.11, written by Peter Selinger 2001-2013
</metadata>
<g transform="translate(0.000000,16.000000) scale(0.003670,-0.003670)"
fill="#000000" stroke="none">
<path d="M2066 4159 c-166 -167 -187 -191 -175 -206 8 -9 157 -159 333 -335
274 -274 321 -317 334 -306 9 7 47 44 84 82 l69 69 60 -59 59 -59 -210 -210
-211 -211 87 -88 87 -88 -60 -60 -60 -60 -49 34 c-67 46 -175 94 -259 113 -73
17 -208 25 -284 17 l-43 -4 101 -102 c73 -73 100 -107 97 -121 -2 -11 -7 -54
-11 -95 -4 -41 -9 -88 -11 -105 -2 -16 -7 -61 -10 -100 -3 -38 -8 -74 -11 -78
-3 -4 3 -19 11 -32 26 -40 128 -136 145 -137 19 -1 179 13 205 18 10 2 53 6
95 9 42 3 84 9 94 11 13 4 47 -23 123 -97 76 -75 104 -98 105 -83 0 10 3 54 5
96 9 139 -34 306 -114 440 l-35 60 61 61 61 61 77 -78 78 -77 210 210 211 211
59 -59 59 -60 -71 -71 c-39 -39 -75 -77 -81 -84 -9 -11 61 -86 320 -345 182
-182 334 -331 336 -331 3 0 93 87 199 194 l194 193 -335 335 -335 336 -83 -84
-84 -83 -59 60 -59 59 220 220 219 219 -23 25 -24 25 96 97 96 96 -5 67 c-8
119 -14 155 -31 181 -21 32 -82 94 -108 107 -22 12 -100 24 -188 28 l-58 3
-95 -95 -95 -96 -25 24 -25 23 -219 -219 -220 -220 -60 60 -59 59 83 82 84 83
-330 330 c-181 182 -335 331 -341 331 -7 -1 -97 -86 -201 -191z m411 -2025
c-1 -2 -34 -5 -72 -9 -39 -3 -81 -8 -95 -10 -14 -2 -54 -7 -90 -10 l-65 -6
-43 44 c-41 41 -43 47 -38 88 3 24 8 77 12 118 3 41 8 81 9 90 2 9 4 29 4 46
1 28 14 17 191 -160 104 -104 188 -190 187 -191z"/>
<path d="M1888 2089 c-32 -18 -19 -48 51 -119 72 -73 102 -85 121 -50 14 27 5
43 -73 118 -69 66 -72 67 -99 51z"/>
<path d="M1674 1878 c-3 -5 -9 -6 -13 -3 -13 7 -59 -37 -70 -68 -15 -39 -14
-67 4 -101 15 -28 15 -29 -2 -14 -10 8 -29 24 -42 34 -13 10 -29 24 -35 31 -7
6 -35 23 -63 37 -183 96 -412 82 -573 -34 -106 -77 -192 -196 -216 -302 -2
-10 -7 -28 -10 -40 -19 -77 1 -292 29 -310 7 -4 9 -8 5 -8 -11 0 49 -108 86
-154 30 -38 80 -114 82 -126 0 -3 13 -31 27 -63 15 -32 27 -63 27 -71 0 -7 3
-16 7 -20 4 -3 8 -14 9 -24 1 -9 5 -37 9 -62 4 -25 8 -126 9 -225 2 -203 7
-221 66 -231 53 -9 63 -13 57 -27 -6 -15 30 -60 60 -76 57 -29 176 0 187 46 4
12 11 23 16 23 5 0 7 7 4 15 -4 11 1 15 17 15 86 1 93 20 94 238 0 98 3 182 6
187 3 6 4 20 3 33 0 12 3 22 8 22 5 0 7 4 4 9 -3 5 2 33 11 62 9 30 17 56 18
59 6 28 50 110 58 110 6 0 8 3 4 6 -5 6 44 88 62 104 26 22 114 184 105 193
-2 2 1 17 7 33 12 29 20 234 9 234 -5 0 -9 18 -12 58 -1 6 -5 12 -10 12 -4 0
-7 4 -5 8 4 13 -26 82 -35 82 -5 0 -6 5 -3 10 3 6 1 10 -4 10 -6 0 -11 6 -11
13 0 7 -11 25 -25 40 -18 19 -21 27 -11 27 8 0 16 -4 18 -10 2 -5 12 -11 23
-13 11 -1 26 -6 33 -10 6 -5 12 -4 12 2 0 5 9 8 20 6 11 -2 20 0 20 6 0 5 5 9
11 9 27 0 67 74 64 117 -3 30 -29 69 -61 90 -28 18 -82 25 -90 11z"/>
<path d="M2233 1115 c-6 -7 -10 -15 -7 -18 2 -2 -2 -10 -11 -17 -8 -7 -15 -19
-15 -26 0 -8 -4 -14 -10 -14 -5 0 -10 -4 -10 -10 0 -5 -19 -42 -43 -82 -23
-40 -51 -90 -61 -110 -11 -20 -24 -34 -29 -31 -6 3 -7 2 -4 -4 3 -5 0 -21 -8
-36 -8 -15 -11 -28 -7 -29 22 -4 38 -3 44 6 4 6 12 5 21 -3 11 -8 17 -9 22 -1
3 6 11 8 16 5 19 -12 49 -13 49 -2 0 8 3 8 8 2 11 -16 45 -19 37 -3 -6 10 -5
10 5 1 9 -8 19 -9 31 -3 12 7 20 6 25 -1 4 -8 9 -7 15 2 6 10 9 11 9 2 0 -7 5
-13 11 -13 5 0 7 6 3 13 -6 9 -4 9 8 -1 11 -9 18 -10 23 -2 3 6 11 8 16 4 20
-12 61 -15 54 -3 -5 8 -1 8 15 -1 42 -23 36 -4 -47 140 -48 83 -97 168 -115
200 -27 47 -31 50 -45 35z"/>
<path d="M34 731 c-2 -2 -4 -91 -4 -197 0 -161 2 -193 15 -198 8 -3 15 0 15 6
0 7 4 7 13 0 7 -6 18 -7 25 -3 6 4 37 4 67 1 31 -3 55 -2 55 3 0 5 6 4 13 -2
8 -6 17 -8 20 -5 3 3 43 7 89 8 l83 1 0 195 0 195 -193 0 c-107 0 -196 -2
-198 -4z"/>
</g>
</svg>
