<svg xmlns="http://www.w3.org/2000/svg" viewBox="0 0 100 125"><path d="M52.297 60.17c-2.091 0-4.32-.035-6.659-.076a523.287 523.287 0 0 0-16.045 0c-2.339.041-4.569.076-6.659.076-4.222 0-8.984-.133-12.323-1.134-3.782-1.131-5.7-3.345-5.7-6.576 0-8.66 14.366-15.443 32.705-15.443S70.32 43.8 70.32 52.46c0 7.71-10.848 7.71-18.023 7.71zm-14.682-3.424c2.794 0 5.502.044 8.076.088 2.32.039 4.534.074 6.605.074 10.759 0 14.761-1.205 14.761-4.448 0-5.881-11.83-12.18-29.442-12.18S8.173 46.579 8.173 52.46c0 1.208.401 2.562 3.374 3.45 2.935.88 7.401.998 11.387.998 2.071 0 4.285-.035 6.604-.074 2.575-.044 5.283-.088 8.077-.088z"/><path d="M60.902 66.511H14.338a4.806 4.806 0 0 1-4.805-4.798 4.808 4.808 0 0 1 4.805-4.805h46.564a4.806 4.806 0 0 1 4.798 4.805 4.805 4.805 0 0 1-4.798 4.798zM14.338 60.17a1.539 1.539 0 1 0 0 3.078h46.564a1.54 1.54 0 0 0 0-3.078H14.338zm46.564 22.295H14.338a4.807 4.807 0 0 1-4.805-4.799 4.806 4.806 0 0 1 4.805-4.797h46.564a4.804 4.804 0 0 1 4.798 4.797 4.805 4.805 0 0 1-4.798 4.799zm-46.564-6.334a1.54 1.54 0 0 0-1.542 1.535 1.54 1.54 0 0 0 1.542 1.536h46.564a1.536 1.536 0 0 0 0-3.071H14.338z"/><path d="M60.449 76.131a6.997 6.997 0 0 1-4.565-1.688c-2.517 2.16-6.61 2.16-9.134 0-2.515 2.16-6.621 2.16-9.135 0-2.521 2.16-6.614 2.153-9.135 0-2.511 2.16-6.614 2.153-9.131 0a7.005 7.005 0 0 1-4.565 1.688c-3.891 0-7.058-3.167-7.058-7.059a7.009 7.009 0 0 1 3.96-6.34 1.639 1.639 0 0 1 2.183.748c.396.81.061 1.787-.748 2.183a3.772 3.772 0 0 0-2.132 3.409 3.8 3.8 0 0 0 3.795 3.797 3.775 3.775 0 0 0 3.188-1.768c.6-.943 2.154-.943 2.753 0 1.408 2.213 4.971 2.213 6.379 0a1.63 1.63 0 0 1 1.376-.755c.558 0 1.074.284 1.373.752 1.412 2.216 4.968 2.21 6.392 0 .3-.468.818-.752 1.373-.752h.003c.555 0 1.074.286 1.374.755 1.408 2.213 4.97 2.213 6.378 0a1.63 1.63 0 0 1 2.75-.003c1.411 2.216 4.97 2.216 6.388 0a1.631 1.631 0 0 1 2.75.003 3.776 3.776 0 0 0 3.188 1.768 3.8 3.8 0 0 0 2.684-6.483 1.63 1.63 0 1 1 2.313-2.301 7.016 7.016 0 0 1 2.062 4.986c-.001 3.893-3.168 7.06-7.059 7.06zm2.157 15.535H12.62c-3.438 0-6.231-2.797-6.231-6.231s2.794-6.232 6.231-6.232h49.986c3.438 0 6.232 2.798 6.232 6.232s-2.794 6.231-6.232 6.231zM12.62 82.465c-1.638 0-2.969 1.332-2.969 2.97s1.331 2.97 2.969 2.97h49.986c1.638 0 2.97-1.332 2.97-2.97s-1.332-2.97-2.97-2.97H12.62z"/><path d="M85.32 91.666H60.004a1.632 1.632 0 0 1 0-3.262h23.8l3.708-51.489H53.533l.172 2.354a1.633 1.633 0 0 1-3.257.236l-.296-4.104a1.632 1.632 0 0 1 1.628-1.749h37.484a1.63 1.63 0 0 1 1.628 1.749L86.948 90.15a1.635 1.635 0 0 1-1.628 1.516z"/><path d="M89.182 36.916H52.188a5.912 5.912 0 0 1-5.904-5.907 5.912 5.912 0 0 1 5.904-5.907h36.993a5.915 5.915 0 0 1 5.907 5.907 5.914 5.914 0 0 1-5.906 5.907zm-36.994-8.552a2.647 2.647 0 0 0-2.642 2.645 2.647 2.647 0 0 0 2.642 2.645h36.993a2.647 2.647 0 0 0 2.645-2.645 2.647 2.647 0 0 0-2.645-2.645H52.188z"/><path d="M70.684 28.364a1.63 1.63 0 0 1-1.632-1.631v-8.711c0-.634.366-1.21.943-1.479l17.269-8.057a1.629 1.629 0 0 1 2.166.79 1.628 1.628 0 0 1-.79 2.167l-16.325 7.618v7.672a1.631 1.631 0 0 1-1.631 1.631z"/></svg>