<svg xmlns="http://www.w3.org/2000/svg" viewBox="0 0 100 125"><path style="text-indent:0;text-transform:none;block-progression:tb" d="M31.063 5c.538-.01.82.443.968.719l1.407 4.844a18.16 18.16 0 0 1 3.03 1.28l4.438-2.468a1.03 1.03 0 0 1 1.188.188l4.343 4.312c.313.31.381.84.157 1.219l-2.469 4.437c.51.966.949 1.97 1.281 3.032l4.875 1.375c.414.121.723.537.719.968v6.157a1.03 1.03 0 0 1-.719.968l-4.906 1.407a18.089 18.089 0 0 1-1.25 3l2.469 4.468c.21.374.142.881-.157 1.188l-4.343 4.344a1.029 1.029 0 0 1-1.188.156l-4.437-2.469c-.96.506-1.977.919-3.032 1.25l-1.406 4.875a1.03 1.03 0 0 1-.968.75h-6.125a1.03 1.03 0 0 1-.97-.75l-1.405-4.875a18.174 18.174 0 0 1-3.032-1.25l-4.437 2.469a1.03 1.03 0 0 1-1.188-.156l-4.343-4.344a1.029 1.029 0 0 1-.157-1.188l2.469-4.468a18.088 18.088 0 0 1-1.25-3L5.719 32.03A1.03 1.03 0 0 1 5 31.063v-6.157a1.03 1.03 0 0 1 .719-.968l4.875-1.375a18.06 18.06 0 0 1 1.281-3.032l-2.469-4.437a1.03 1.03 0 0 1 .157-1.219l4.343-4.312c.3-.31.808-.39 1.188-.188l4.437 2.469a18.16 18.16 0 0 1 3.032-1.281l1.406-4.844A1.03 1.03 0 0 1 24.937 5h6.125zm-.72 2h-4.687l-1.281 4.594a1.02 1.02 0 0 1-.719.687c-1.305.36-2.53.904-3.687 1.563a1.02 1.02 0 0 1-.969 0L14.781 11.5 11.5 14.781l2.344 4.188a1.02 1.02 0 0 1 0 1 16.027 16.027 0 0 0-1.531 3.687 1.02 1.02 0 0 1-.688.688L7 25.656v4.657l4.625 1.312c.325.093.595.362.688.688.36 1.305.872 2.56 1.53 3.718a1.02 1.02 0 0 1 0 .97l-2.312 4.218 3.25 3.25L19 42.125c.3-.154.68-.141.969.031a16.02 16.02 0 0 0 3.687 1.531c.337.083.62.355.719.688L25.688 49h4.625l1.312-4.625a1.02 1.02 0 0 1 .719-.688 16.02 16.02 0 0 0 3.687-1.53c.29-.174.669-.186.969-.032l4.219 2.344 3.25-3.25L42.156 37a1.02 1.02 0 0 1 0-.969 16.263 16.263 0 0 0 1.532-3.718 1.02 1.02 0 0 1 .687-.688L49 30.313v-4.657l-4.625-1.312a1.02 1.02 0 0 1-.688-.688 16.029 16.029 0 0 0-1.53-3.687 1.02 1.02 0 0 1 0-1L44.5 14.78l-3.281-3.28L37 13.843a1.02 1.02 0 0 1-.969 0c-1.157-.659-2.382-1.203-3.687-1.563a1.02 1.02 0 0 1-.719-.687L30.344 7zM28 19c4.959 0 9 4.041 9 9s-4.041 9-9 9-9-4.041-9-9 4.041-9 9-9zm0 2c-3.878 0-7 3.122-7 7s3.122 7 7 7 7-3.122 7-7-3.122-7-7-7zm43.625 20c.55-.01.848.416.969.719l1.687 5.875c1.3.402 2.542.903 3.719 1.531l5.344-2.969a1.03 1.03 0 0 1 1.187.188l5.125 5.125c.3.306.366.814.156 1.187l-2.937 5.313a21.266 21.266 0 0 1 1.563 3.75l5.843 1.656c.414.121.723.537.719.969v7.281a1.03 1.03 0 0 1-.719.969l-5.844 1.656c-.404 1.314-.958 2.56-1.593 3.75l2.969 5.313c.224.38.156.908-.157 1.218l-5.125 5.125a1.029 1.029 0 0 1-1.187.157L78 86.843a21.277 21.277 0 0 1-3.719 1.563l-1.687 5.844c-.11.426-.53.75-.969.75h-7.25a1.03 1.03 0 0 1-.969-.75l-1.687-5.844A21.266 21.266 0 0 1 58 86.844l-5.344 2.969c-.373.209-.88.142-1.187-.157l-5.125-5.125a1.03 1.03 0 0 1-.157-1.218L49.157 78c-.636-1.19-1.19-2.436-1.594-3.75l-5.844-1.656a1.03 1.03 0 0 1-.719-.969v-7.281a1.03 1.03 0 0 1 .719-.969l5.843-1.656c.404-1.31.93-2.564 1.563-3.75l-2.938-5.313a1.029 1.029 0 0 1 .157-1.187l5.125-5.125c.299-.309.808-.39 1.187-.188L58 49.126a21.194 21.194 0 0 1 3.719-1.532l1.687-5.875a1.03 1.03 0 0 1 .969-.719h7.25zm-.719 2h-5.812l-1.563 5.563a1.02 1.02 0 0 1-.687.687 19.461 19.461 0 0 0-4.438 1.844 1.02 1.02 0 0 1-.968 0l-5.094-2.813-4.063 4.063 2.844 5.094a1.02 1.02 0 0 1 0 .968 19.223 19.223 0 0 0-1.844 4.407 1.02 1.02 0 0 1-.687.687L43 65.094v5.781l5.594 1.594c.325.093.594.362.687.687a19.223 19.223 0 0 0 1.844 4.407 1.02 1.02 0 0 1 0 1l-2.813 5.093 4.032 4.032 5.093-2.813a1.02 1.02 0 0 1 .97 0 19.456 19.456 0 0 0 4.437 1.844c.325.093.594.362.687.687L65.125 93h5.75l1.594-5.594a1.02 1.02 0 0 1 .687-.687 19.457 19.457 0 0 0 4.438-1.844 1.02 1.02 0 0 1 .969 0l5.093 2.813 4.031-4.032-2.812-5.093a1.02 1.02 0 0 1 0-1 19.223 19.223 0 0 0 1.844-4.407 1.02 1.02 0 0 1 .687-.687L93 70.875v-5.781L87.406 63.5a1.02 1.02 0 0 1-.687-.687 19.223 19.223 0 0 0-1.844-4.407 1.02 1.02 0 0 1 0-.968l2.844-5.094-4.063-4.063-5.094 2.813a1.02 1.02 0 0 1-.968 0 19.461 19.461 0 0 0-4.438-1.844 1.02 1.02 0 0 1-.687-.687L70.906 43zM68 57c6.063 0 11 4.937 11 11s-4.937 11-11 11-11-4.937-11-11 4.937-11 11-11zm0 2c-4.982 0-9 4.018-9 9s4.018 9 9 9 9-4.018 9-9-4.018-9-9-9z" overflow="visible" color="#000"/></svg>