<svg xmlns="http://www.w3.org/2000/svg" viewBox="0 0 100 125" fill="#3F51B5"><path d="M92.2 10.5H7.8c-3.7 0-6.8 3-6.8 6.8v65.5c0 3.7 3 6.8 6.8 6.8h84.4c3.7 0 6.8-3 6.8-6.8V17.2c0-3.7-3.1-6.7-6.8-6.7zM7.8 14h84.4c1.8 0 3.3 1.5 3.3 3.3v12.1h-91V17.2C4.5 15.4 6 14 7.8 14zm84.4 72H7.8c-1.8 0-3.3-1.5-3.3-3.3V32.9h91v49.9c0 1.8-1.5 3.2-3.3 3.2zM11 22.9c-.3-.3-.5-.8-.5-1.2s.2-.9.5-1.2c.7-.6 1.8-.6 2.5 0 .3.3.5.8.5 1.2s-.2.9-.5 1.2c-.3.3-.8.5-1.2.5s-1-.2-1.3-.5zm9.4 0c-.3-.3-.5-.8-.5-1.2s.2-.9.5-1.2c.6-.6 1.8-.6 2.5 0 .3.3.5.8.5 1.2s-.2.9-.5 1.2c-.3.3-.8.5-1.2.5s-1-.2-1.3-.5zm9.5 0c-.3-.3-.5-.8-.5-1.2s.2-.9.5-1.2c.6-.6 1.8-.6 2.5 0 .3.3.5.8.5 1.2s-.2.9-.5 1.2c-.3.3-.8.5-1.2.5s-1-.2-1.3-.5zM81 58.3c.4.3.6.8.6 1.3s-.2 1-.6 1.3L66.2 73.6c-.4.3-.8.4-1.2.4-.5 0-1-.2-1.3-.6-.6-.7-.5-1.8.2-2.5l13.3-11.3-13.3-11.2c-.7-.6-.8-1.7-.2-2.5.6-.7 1.7-.8 2.5-.2L81 58.3zM36.1 70.9c.7.6.8 1.7.2 2.5-.3.4-.8.6-1.3.6-.4 0-.8-.1-1.1-.4L19 61c-.4-.3-.6-.8-.6-1.3s.2-1 .6-1.3l14.8-12.6c.7-.6 1.8-.5 2.5.2s.5 1.8-.2 2.5L22.8 59.7l13.3 11.2zm21.8-26.3L45.3 76.1c-.3.7-.9 1.1-1.6 1.1-.2 0-.4 0-.6-.1-.9-.4-1.3-1.4-1-2.3l12.6-31.5c.4-.9 1.4-1.3 2.3-1 .8.4 1.2 1.4.9 2.3z"/></svg>