<svg xmlns="http://www.w3.org/2000/svg" viewBox="0 0 100 125"><style>.st0,.st1{fill:none;stroke:#000;stroke-linejoin:round;stroke-miterlimit:10}.st1{stroke-width:3}</style><path d="M94.9 76l-6.6-1.3V28.5c-.1-1.8-1.6-3.2-3.3-3.2H15c-1.8 0-3.3 1.5-3.3 3.3v46.1L5.1 76c-.1 0-.1.1-.1.1 0 1.4 1.1 2.4 2.5 2.4h85.2c1.3-.1 2.3-1.1 2.2-2.5.1 0 0 0 0 0zM50 26c.3 0 .5.2.5.5-.1.3-.3.5-.5.5-.3 0-.5-.2-.5-.5s.2-.5.5-.5zm-36 1.5h72v45H14v-45zM54.8 76c0 .3-.2.5-.5.5h-8.6c-.3 0-.5-.2-.5-.5h-40l6.5-1.2c.1.1.2.2.4.2h75.8c.2 0 .3-.1.4-.2l6.4 1.2H54.8z"/><path d="M54.3 75.5h-8.6c-.3 0-.4.2-.4.5h9.5c0-.4-.2-.5-.5-.5zm-7.294-13.227l4.24-24.943 1.775.301-4.24 24.944zM57.8 39.8l-1.3 1.3 9 8.9-9 8.9 1.3 1.3L68 50zM42.2 60.2l1.3-1.3-9-8.9 9-8.9-1.3-1.3L32 50z"/></svg>