<svg xmlns="http://www.w3.org/2000/svg" viewBox="0 0 100 125" fill="#3F51B5"><title>Web Tags</title><path d="M92.2 10.599H7.8c-3.7 0-6.8 3-6.8 6.8v65.5c0 3.7 3 6.8 6.8 6.8h84.4c3.7 0 6.8-3 6.8-6.8v-65.6c0-3.7-3.1-6.7-6.8-6.7zm-84.4 3.5h84.4c1.8 0 3.3 1.5 3.3 3.3v12.1h-91v-12.2c0-1.8 1.5-3.2 3.3-3.2zm84.4 72H7.8c-1.8 0-3.3-1.5-3.3-3.3v-49.8h91v49.9c0 1.8-1.5 3.2-3.3 3.2zM11 22.999c-.3-.3-.5-.8-.5-1.2 0-.4.2-.9.5-1.2.7-.6 1.8-.6 2.5 0 .3.3.5.8.5 1.2 0 .4-.2.9-.5 1.2-.3.3-.8.5-1.2.5-.4 0-1-.2-1.3-.5zm9.4 0c-.3-.3-.5-.8-.5-1.2 0-.4.2-.9.5-1.2.6-.6 1.8-.6 2.5 0 .3.3.5.8.5 1.2 0 .4-.2.9-.5 1.2-.3.3-.8.5-1.2.5-.4 0-1-.2-1.3-.5zm9.5 0c-.3-.3-.5-.8-.5-1.2 0-.4.2-.9.5-1.2.6-.6 1.8-.6 2.5 0 .3.3.5.8.5 1.2 0 .4-.2.9-.5 1.2-.3.3-.8.5-1.2.5-.4 0-1-.2-1.3-.5zm51.1 35.4c.4.3.6.8.6 1.3s-.2 1-.6 1.3l-14.8 12.7c-.4.3-.8.4-1.2.4-.5 0-1-.2-1.3-.6-.6-.7-.5-1.8.2-2.5l13.3-11.3-13.3-11.2c-.7-.6-.8-1.7-.2-2.5.6-.7 1.7-.8 2.5-.2l14.8 12.6zm-44.9 12.6c.7.6.8 1.7.2 2.5-.3.4-.8.6-1.3.6-.4 0-.8-.1-1.1-.4L19 61.099c-.4-.3-.6-.8-.6-1.3s.2-1 .6-1.3l14.8-12.6c.7-.6 1.8-.5 2.5.2s.5 1.8-.2 2.5l-13.3 11.2 13.3 11.2zm21.8-26.3l-12.6 31.5c-.3.7-.9 1.1-1.6 1.1-.2 0-.4 0-.6-.1-.9-.4-1.3-1.4-1-2.3l12.6-31.5c.4-.9 1.4-1.3 2.3-1 .8.4 1.2 1.4.9 2.3z"/><circle cx="12.264" cy="21.755" r="1.8" fill="red"/><circle cx="21.634" cy="21.755" r="1.8" fill="#ff0"/><circle cx="31.152" cy="21.805" r="1.8" fill="#0f0"/></svg>