<svg xmlns="http://www.w3.org/2000/svg" xmlns:xlink="http://www.w3.org/1999/xlink" version="1.1" x="0px" y="0px" viewBox="0 0 100 125" style="enable-background:new 0 0 100 100;" xml:space="preserve"><style type="text/css">
	.st0{fill:none;stroke:#000000;stroke-linejoin:round;stroke-miterlimit:10;}
	.st1{fill:none;stroke:#000000;stroke-width:3;stroke-linejoin:round;stroke-miterlimit:10;}
</style><g><path d="M94.9,76l-6.6-1.3c0-0.1,0-0.1,0-0.2v-46c-0.1-1.8-1.6-3.2-3.3-3.2H15c-1.8,0-3.3,1.5-3.3,3.3v45.9c0,0.1,0,0.1,0,0.2   l-6.6,1.3C5,76,5,76.1,5,76.1c0,1.4,1.1,2.4,2.5,2.4h85.2C94,78.4,95,77.4,94.9,76C95,76,94.9,76,94.9,76z M50,26   c0.3,0,0.5,0.2,0.5,0.5C50.4,26.8,50.2,27,50,27c-0.3,0-0.5-0.2-0.5-0.5C49.5,26.2,49.7,26,50,26z M14,27.5h72v45H14V27.5z    M54.8,76c0,0.3-0.2,0.5-0.5,0.5h-8.6c-0.3,0-0.5-0.2-0.5-0.5h-40l6.5-1.2c0.1,0.1,0.2,0.2,0.4,0.2h75.8c0.2,0,0.3-0.1,0.4-0.2   l6.4,1.2H54.8z"/><path d="M54.3,75.5h-8.6c-0.3,0-0.4,0.2-0.4,0.5h9.5C54.8,75.6,54.6,75.5,54.3,75.5z"/></g><g><rect x="37.4" y="49.1" transform="matrix(0.1676 -0.9859 0.9859 0.1676 -7.6696 90.9165)" width="25.3" height="1.8"/><polygon points="57.8,39.8 56.5,41.1 65.5,50 56.5,58.9 57.8,60.2 68,50  "/><polygon points="42.2,60.2 43.5,58.9 34.5,50 43.5,41.1 42.2,39.8 32,50  "/></g></svg>