<svg xmlns="http://www.w3.org/2000/svg" xmlns:xlink="http://www.w3.org/1999/xlink" version="1.1" x="0px" y="0px" viewBox="0 0 100 125" enable-background="new 0 0 100 100" xml:space="preserve"><g><path d="M52.297,60.17c-2.091,0-4.32-0.035-6.659-0.076c-5.117-0.082-10.929-0.082-16.045,0c-2.339,0.041-4.569,0.076-6.659,0.076   c-4.222,0-8.984-0.133-12.323-1.134c-3.782-1.131-5.7-3.345-5.7-6.576c0-8.66,14.366-15.443,32.705-15.443S70.32,43.8,70.32,52.46   C70.32,60.17,59.472,60.17,52.297,60.17z M37.615,56.746c2.794,0,5.502,0.044,8.076,0.088c2.32,0.039,4.534,0.074,6.605,0.074   c10.759,0,14.761-1.205,14.761-4.448c0-5.881-11.83-12.18-29.442-12.18S8.173,46.579,8.173,52.46c0,1.208,0.401,2.562,3.374,3.45   c2.935,0.88,7.401,0.998,11.387,0.998c2.071,0,4.285-0.035,6.604-0.074C32.113,56.79,34.821,56.746,37.615,56.746z"/></g><g><path d="M60.902,66.511H14.338c-2.651,0-4.805-2.153-4.805-4.798c0-2.651,2.153-4.805,4.805-4.805h46.564   c2.645,0,4.798,2.153,4.798,4.805C65.7,64.357,63.547,66.511,60.902,66.511z M14.338,60.17c-0.851,0-1.542,0.691-1.542,1.543   c0,0.848,0.691,1.535,1.542,1.535h46.564c0.848,0,1.535-0.688,1.535-1.535c0-0.852-0.688-1.543-1.535-1.543H14.338z"/></g><g><path d="M60.902,82.465H14.338c-2.651,0-4.805-2.154-4.805-4.799c0-2.644,2.153-4.797,4.805-4.797h46.564   c2.645,0,4.798,2.153,4.798,4.797C65.7,80.311,63.547,82.465,60.902,82.465z M14.338,76.131c-0.851,0-1.542,0.688-1.542,1.535   c0,0.848,0.691,1.536,1.542,1.536h46.564c0.848,0,1.535-0.688,1.535-1.536c0-0.847-0.688-1.535-1.535-1.535H14.338z"/></g><g><path d="M60.449,76.131c-1.701,0-3.31-0.611-4.565-1.688c-2.517,2.16-6.61,2.16-9.134,0c-2.515,2.16-6.621,2.16-9.135,0   c-2.521,2.16-6.614,2.153-9.135,0c-2.511,2.16-6.614,2.153-9.131,0c-1.259,1.077-2.864,1.688-4.565,1.688   c-3.891,0-7.058-3.167-7.058-7.059c0-2.718,1.517-5.146,3.96-6.34c0.81-0.389,1.784-0.061,2.183,0.748   c0.396,0.81,0.061,1.787-0.748,2.183c-1.316,0.644-2.132,1.95-2.132,3.409c0,2.094,1.701,3.797,3.795,3.797   c1.293,0,2.484-0.664,3.188-1.768c0.6-0.943,2.154-0.943,2.753,0c1.408,2.213,4.971,2.213,6.379,0   c0.3-0.471,0.818-0.755,1.376-0.755l0,0c0.558,0,1.074,0.284,1.373,0.752c1.412,2.216,4.968,2.21,6.392,0   c0.3-0.468,0.818-0.752,1.373-0.752h0.003c0.555,0,1.074,0.286,1.374,0.755c1.408,2.213,4.97,2.213,6.378,0   c0.3-0.471,0.819-0.755,1.377-0.755l0,0c0.557,0,1.073,0.284,1.373,0.752c1.411,2.216,4.97,2.216,6.388,0   c0.3-0.468,0.815-0.752,1.373-0.752l0,0c0.558,0,1.077,0.284,1.377,0.755c0.704,1.104,1.896,1.768,3.188,1.768   c2.094,0,3.795-1.703,3.795-3.797c0-1.014-0.395-1.966-1.111-2.686c-0.635-0.638-0.635-1.67,0.006-2.307   c0.631-0.631,1.67-0.638,2.307,0.006c1.329,1.332,2.062,3.104,2.062,4.986C67.507,72.964,64.34,76.131,60.449,76.131z"/></g><g><path d="M62.606,91.666H12.62c-3.438,0-6.231-2.797-6.231-6.231s2.794-6.232,6.231-6.232h49.986c3.438,0,6.232,2.798,6.232,6.232   S66.044,91.666,62.606,91.666z M12.62,82.465c-1.638,0-2.969,1.332-2.969,2.97s1.331,2.97,2.969,2.97h49.986   c1.638,0,2.97-1.332,2.97-2.97s-1.332-2.97-2.97-2.97H12.62z"/></g><g><path d="M85.32,91.666H60.004c-0.902,0-1.632-0.732-1.632-1.631c0-0.904,0.729-1.631,1.632-1.631h23.8l3.708-51.489H53.533   l0.172,2.354c0.063,0.898-0.612,1.679-1.511,1.746c-0.904,0.061-1.679-0.611-1.746-1.51l-0.296-4.104   c-0.032-0.452,0.124-0.898,0.434-1.229c0.309-0.332,0.742-0.52,1.194-0.52h37.484c0.452,0,0.886,0.188,1.194,0.52   c0.31,0.331,0.466,0.777,0.434,1.229L86.948,90.15C86.885,91.004,86.174,91.666,85.32,91.666z"/></g><g><path d="M89.182,36.916H52.188c-3.257,0-5.904-2.651-5.904-5.907c0-3.256,2.647-5.907,5.904-5.907h36.993   c3.256,0,5.907,2.651,5.907,5.907C95.089,34.265,92.438,36.916,89.182,36.916z M52.188,28.364c-1.456,0-2.642,1.186-2.642,2.645   c0,1.459,1.186,2.645,2.642,2.645h36.993c1.459,0,2.645-1.185,2.645-2.645c0-1.459-1.186-2.645-2.645-2.645H52.188z"/></g><g><path d="M70.684,28.364c-0.902,0-1.632-0.729-1.632-1.631v-8.711c0-0.634,0.366-1.21,0.943-1.479l17.269-8.057   c0.81-0.379,1.784-0.032,2.166,0.79c0.383,0.815,0.029,1.784-0.79,2.167l-16.325,7.618v7.672   C72.314,27.634,71.585,28.364,70.684,28.364z"/></g></svg>