<?xml version="1.0" encoding="UTF-8" standalone="no"?>
<svg
   xmlns:dc="http://purl.org/dc/elements/1.1/"
   xmlns:cc="http://creativecommons.org/ns#"
   xmlns:rdf="http://www.w3.org/1999/02/22-rdf-syntax-ns#"
   xmlns:svg="http://www.w3.org/2000/svg"
   xmlns="http://www.w3.org/2000/svg"
   xmlns:sodipodi="http://sodipodi.sourceforge.net/DTD/sodipodi-0.dtd"
   xmlns:inkscape="http://www.inkscape.org/namespaces/inkscape"
   version="1.1"
   x="0px"
   y="0px"
   viewBox="0 0 100 125"
   enable-background="new 0 0 100 100"
   xml:space="preserve"
   fill="#3F51B5"
   id="svg3336"
   inkscape:version="0.91 r13725"
   sodipodi:docname="web-tags--edit.svg"><title
     id="title3442">Web Tags</title><metadata
     id="metadata3344"><rdf:RDF><cc:Work
         rdf:about=""><dc:format>image/svg+xml</dc:format><dc:type
           rdf:resource="http://purl.org/dc/dcmitype/StillImage" /><dc:title>Web Tags</dc:title></cc:Work></rdf:RDF></metadata><defs
     id="defs3342" /><sodipodi:namedview
     pagecolor="#ffffff"
     bordercolor="#666666"
     borderopacity="1"
     objecttolerance="10"
     gridtolerance="10"
     guidetolerance="10"
     inkscape:pageopacity="0"
     inkscape:pageshadow="2"
     inkscape:window-width="1536"
     inkscape:window-height="801"
     id="namedview3340"
     showgrid="false"
     inkscape:zoom="10.112"
     inkscape:cx="34.32568"
     inkscape:cy="83.441088"
     inkscape:window-x="-8"
     inkscape:window-y="-8"
     inkscape:window-maximized="1"
     inkscape:current-layer="svg3336" /><path
     d="m 92.2,10.598892 -84.4,0 c -3.7,0 -6.8,3 -6.8,6.8 l 0,65.5 c 0,3.7 3,6.8 6.8,6.8 l 84.4,0 c 3.7,0 6.8,-3 6.8,-6.8 l 0,-65.6 c 0,-3.7 -3.1,-6.7 -6.8,-6.7 z m -84.4,3.5 84.4,0 c 1.8,0 3.3,1.5 3.3,3.3 l 0,12.1 -91,0 0,-12.2 c 0,-1.8 1.5,-3.2 3.3,-3.2 z m 84.4,72 -84.4,0 c -1.8,0 -3.3,-1.5 -3.3,-3.3 l 0,-49.8 91,0 0,49.9 c 0,1.8 -1.5,3.2 -3.3,3.2 z m -81.2,-63.1 c -0.3,-0.3 -0.5,-0.8 -0.5,-1.2 0,-0.4 0.2,-0.9 0.5,-1.2 0.7,-0.6 1.8,-0.6 2.5,0 0.3,0.3 0.5,0.8 0.5,1.2 0,0.4 -0.2,0.9 -0.5,1.2 -0.3,0.3 -0.8,0.5 -1.2,0.5 -0.4,0 -1,-0.2 -1.3,-0.5 z m 9.4,0 c -0.3,-0.3 -0.5,-0.8 -0.5,-1.2 0,-0.4 0.2,-0.9 0.5,-1.2 0.6,-0.6 1.8,-0.6 2.5,0 0.3,0.3 0.5,0.8 0.5,1.2 0,0.4 -0.2,0.9 -0.5,1.2 -0.3,0.3 -0.8,0.5 -1.2,0.5 -0.4,0 -1,-0.2 -1.3,-0.5 z m 9.5,0 c -0.3,-0.3 -0.5,-0.8 -0.5,-1.2 0,-0.4 0.2,-0.9 0.5,-1.2 0.6,-0.6 1.8,-0.6 2.5,0 0.3,0.3 0.5,0.8 0.5,1.2 0,0.4 -0.2,0.9 -0.5,1.2 -0.3,0.3 -0.8,0.5 -1.2,0.5 -0.4,0 -1,-0.2 -1.3,-0.5 z m 51.1,35.4 c 0.4,0.3 0.6,0.8 0.6,1.3 0,0.5 -0.2,1 -0.6,1.3 l -14.8,12.7 c -0.4,0.3 -0.8,0.4 -1.2,0.4 -0.5,0 -1,-0.2 -1.3,-0.6 -0.6,-0.7 -0.5,-1.8 0.2,-2.5 l 13.3,-11.3 -13.3,-11.2 c -0.7,-0.6 -0.8,-1.7 -0.2,-2.5 0.6,-0.7 1.7,-0.8 2.5,-0.2 l 14.8,12.6 z m -44.9,12.6 c 0.7,0.6 0.8,1.7 0.2,2.5 -0.3,0.4 -0.8,0.6 -1.3,0.6 -0.4,0 -0.8,-0.1 -1.1,-0.4 l -14.9,-12.6 c -0.4,-0.3 -0.6,-0.8 -0.6,-1.3 0,-0.5 0.2,-1 0.6,-1.3 l 14.8,-12.6 c 0.7,-0.6 1.8,-0.5 2.5,0.2 0.7,0.7 0.5,1.8 -0.2,2.5 l -13.3,11.2 13.3,11.2 z m 21.8,-26.3 -12.6,31.5 c -0.3,0.7 -0.9,1.1 -1.6,1.1 -0.2,0 -0.4,0 -0.6,-0.1 -0.9,-0.4 -1.3,-1.4 -1,-2.3 l 12.6,-31.5 c 0.4,-0.9 1.4,-1.3 2.3,-1 0.8,0.4 1.2,1.4 0.9,2.3 z"
     id="path3338"
     inkscape:connector-curvature="0" /><circle
     style="fill:#ff0000"
     id="path3352-5"
     cx="12.263765"
     cy="21.755222"
     r="1.8" /><circle
     style="fill:#ffff00"
     id="path3352-4-3"
     cx="21.633818"
     cy="21.755222"
     r="1.8" /><circle
     style="fill:#00ff00"
     id="path3352-0"
     cx="31.152214"
     cy="21.804668"
     r="1.8" /></svg>