<svg xmlns="http://www.w3.org/2000/svg" xmlns:xlink="http://www.w3.org/1999/xlink" version="1.1" x="0px" y="0px" viewBox="0 0 100 125" enable-background="new 0 0 100 100" xml:space="preserve" fill="#3F51B5"><path d="M92.2,10.5H7.8c-3.7,0-6.8,3-6.8,6.8v65.5c0,3.7,3,6.8,6.8,6.8h84.4c3.7,0,6.8-3,6.8-6.8V17.2C99,13.5,95.9,10.5,92.2,10.5z   M7.8,14h84.4c1.8,0,3.3,1.5,3.3,3.3v12.1h-91V17.2C4.5,15.4,6,14,7.8,14z M92.2,86H7.8c-1.8,0-3.3-1.5-3.3-3.3V32.9h91v49.9  C95.5,84.6,94,86,92.2,86z M11,22.9c-0.3-0.3-0.5-0.8-0.5-1.2s0.2-0.9,0.5-1.2c0.7-0.6,1.8-0.6,2.5,0c0.3,0.3,0.5,0.8,0.5,1.2  s-0.2,0.9-0.5,1.2c-0.3,0.3-0.8,0.5-1.2,0.5S11.3,23.2,11,22.9z M20.4,22.9c-0.3-0.3-0.5-0.8-0.5-1.2s0.2-0.9,0.5-1.2  c0.6-0.6,1.8-0.6,2.5,0c0.3,0.3,0.5,0.8,0.5,1.2s-0.2,0.9-0.5,1.2c-0.3,0.3-0.8,0.5-1.2,0.5S20.7,23.2,20.4,22.9z M29.9,22.9  c-0.3-0.3-0.5-0.8-0.5-1.2s0.2-0.9,0.5-1.2c0.6-0.6,1.8-0.6,2.5,0c0.3,0.3,0.5,0.8,0.5,1.2s-0.2,0.9-0.5,1.2  c-0.3,0.3-0.8,0.5-1.2,0.5S30.2,23.2,29.9,22.9z M81,58.3c0.4,0.3,0.6,0.8,0.6,1.3c0,0.5-0.2,1-0.6,1.3L66.2,73.6  C65.8,73.9,65.4,74,65,74c-0.5,0-1-0.2-1.3-0.6c-0.6-0.7-0.5-1.8,0.2-2.5l13.3-11.3L63.9,48.4c-0.7-0.6-0.8-1.7-0.2-2.5  c0.6-0.7,1.7-0.8,2.5-0.2L81,58.3z M36.1,70.9c0.7,0.6,0.8,1.7,0.2,2.5c-0.3,0.4-0.8,0.6-1.3,0.6c-0.4,0-0.8-0.1-1.1-0.4L19,61  c-0.4-0.3-0.6-0.8-0.6-1.3c0-0.5,0.2-1,0.6-1.3l14.8-12.6c0.7-0.6,1.8-0.5,2.5,0.2s0.5,1.8-0.2,2.5L22.8,59.7L36.1,70.9z M57.9,44.6  L45.3,76.1c-0.3,0.7-0.9,1.1-1.6,1.1c-0.2,0-0.4,0-0.6-0.1c-0.9-0.4-1.3-1.4-1-2.3l12.6-31.5c0.4-0.9,1.4-1.3,2.3-1  C57.8,42.7,58.2,43.7,57.9,44.6z"/></svg>